<?xml version="1.0" standalone="no"?><!DOCTYPE svg PUBLIC "-//W3C//DTD SVG 1.1//EN" "http://www.w3.org/Graphics/SVG/1.1/DTD/svg11.dtd"><svg t="1676768985027" class="icon" viewBox="0 0 1024 1024" version="1.1" xmlns="http://www.w3.org/2000/svg" p-id="5308" xmlns:xlink="http://www.w3.org/1999/xlink" width="200" height="200"><path d="M192 128a64 64 0 0 0-64 64v640a64 64 0 0 0 64 64h640a64 64 0 0 0 64-64v-640a64 64 0 0 0-64-64h-640m0-128h640a192 192 0 0 1 192 192v640a192 192 0 0 1-192 192h-640a192 192 0 0 1-192-192v-640a192 192 0 0 1 192-192z" fill="#13227a" p-id="5309"></path><path d="M672 256m0 64l0 0q0 64-64 64l-192 0q-64 0-64-64l0 0q0-64 64-64l192 0q64 0 64 64Z" fill="#13227a" p-id="5310"></path><path d="M672 640m0 64l0 0q0 64-64 64l-192 0q-64 0-64-64l0 0q0-64 64-64l192 0q64 0 64 64Z" fill="#13227a" p-id="5311"></path><path d="M800 448m0 64l0 0q0 64-64 64l-448 0q-64 0-64-64l0 0q0-64 64-64l448 0q64 0 64 64Z" fill="#13227a" p-id="5312"></path></svg>